<svg width="793.2" height="383.014" viewBox="0 0 594.9 287.26" xmlns="http://www.w3.org/2000/svg" xmlns:xlink="http://www.w3.org/1999/xlink" overflow="hidden"><path d="M95.7771 95.7586 124.148 95.7586 124.148 191.51 95.7771 191.51ZM109.998 52.0941C100.481 52.0941 93.5759 58.2248 93.5759 66.9228 93.5759 75.5533 100.481 81.7545 109.998 81.7545 119.515 81.7545 126.417 75.5533 126.417 66.9228 126.417 58.2248 119.515 52.0941 109.998 52.0941ZM205.414 159.127C199.877 166.663 195.52 169.658 188.392 169.658 180.201 169.658 176.499 165.345 176.499 151.566L176.499 95.7586 148.131 95.7586 148.131 155.203C148.131 179.133 157.009 193.826 177.831 193.826 190.886 193.826 199.9 187.763 207.891 178.229L208.595 178.229 210.638 191.51 233.785 191.51 233.785 95.7585 205.414 95.7585Z" fill="#FFFFFF"/><path d="M205.559 159.14C200.024 166.677 195.665 169.672 188.535 169.672 180.345 169.672 176.642 165.359 176.642 151.577L176.642 95.7635 148.271 95.7635 148.271 155.217C148.271 179.148 157.148 193.844 177.974 193.844 191.03 193.844 200.045 187.78 208.036 178.244L208.741 178.244 210.786 191.526 233.934 191.526 233.934 95.7635 205.559 95.7635ZM110.133 52.0941C100.615 52.0941 93.7078 58.2247 93.7078 66.9246 93.7078 75.5571 100.615 81.7587 110.133 81.7587 119.651 81.7587 126.555 75.5571 126.555 66.9246 126.555 58.2247 119.651 52.0941 110.133 52.0941M95.9085 95.7635 124.283 95.7635 124.283 191.526 95.9085 191.526Z" fill="#FFFFFF"/><g><path d="M284.829 123.533 294.558 123.533 294.558 135.498C292.745 137.208 289.575 138.196 286.28 138.196 276.477 138.196 271.016 130.958 271.016 119.408 271.016 107.961 276.964 100.848 286.221 100.848 289.991 100.788 293.601 102.37 296.112 105.182L299.316 101.375C295.894 97.706 291.084 95.6492 286.067 95.7085 273.885 95.7085 264.977 104.744 264.977 119.562 264.977 134.485 273.606 143.335 285.727 143.335 291.903 143.335 296.935 141.081 299.89 138.001L299.89 118.688 284.829 118.688Z" fill="#FFFFFF"/><path d="M341.654 109.48C341.654 99.9087 334.934 96.5484 325.576 96.5484L311.185 96.5484 311.185 142.496 317.032 142.496 317.032 123.075 325.335 123.075 336.396 142.496 343.023 142.496 331.318 122.416C337.556 120.887 341.654 116.638 341.654 109.48ZM317.032 101.291 324.735 101.291C331.886 101.291 335.821 103.436 335.821 109.48 335.821 115.436 331.886 118.333 324.735 118.333L317.032 118.333Z" fill="#FFFFFF"/><path d="M368.614 95.7085C357.075 95.7085 348.976 104.64 348.976 119.356 348.976 134.073 357.075 143.335 368.614 143.335 380.154 143.335 388.252 134.073 388.252 119.356 388.252 104.666 380.154 95.7085 368.614 95.7085ZM368.614 138.196C360.41 138.196 355.014 130.802 355.014 119.356 355.014 107.91 360.41 100.848 368.614 100.848 376.818 100.848 382.214 107.91 382.214 119.356 382.214 130.802 376.818 138.196 368.614 138.196Z" fill="#FFFFFF"/><path d="M425.199 123.683C425.199 134.724 420.392 138.196 414.304 138.196 408.305 138.196 403.638 134.724 403.638 123.683L403.638 96.5484 397.792 96.5484 397.792 123.522C397.792 138.267 404.926 143.335 414.304 143.335 423.683 143.335 430.803 138.267 430.803 123.522L430.803 96.5484 425.199 96.5484Z" fill="#FFFFFF"/><path d="M456.255 96.5484 443.133 96.5484 443.133 142.496 448.979 142.496 448.979 124.269 456.535 124.269C466.587 124.269 473.498 119.749 473.498 110.078 473.498 100.012 466.55 96.5484 456.255 96.5484ZM455.798 119.527 448.979 119.527 448.979 101.291 455.517 101.291C463.59 101.291 467.666 103.451 467.666 110.078 467.666 116.616 463.833 119.527 455.798 119.527Z" fill="#FFFFFF"/></g></svg>