<svg viewBox="0 0 24 24" xmlns="http://www.w3.org/2000/svg" xmlns:xlink="http://www.w3.org/1999/xlink" overflow="hidden"><path d="M23.82 1.116C23.6771 0.99675 23.4799 0.966698 23.308 1.038L0.308 10.538C0.0531328 10.6443-0.0673137 10.9371 0.0389752 11.1919 0.0911356 11.317 0.19183 11.4155 0.318 11.465L6.65 13.924C6.80556 13.9846 6.98114 13.9636 7.118 13.868L15.518 7.894C15.7418 7.73221 16.0543 7.78246 16.2161 8.00624 16.3629 8.20927 16.3368 8.4896 16.155 8.662L9.155 15.407C9.05723 15.5012 9.002 15.6312 9.002 15.767L9.002 22.5C9.0028 22.7761 9.22731 22.9993 9.50345 22.9985 9.68014 22.998 9.84344 22.9043 9.933 22.752L13.1 17.327C13.1687 17.21 13.318 17.1688 13.437 17.234L19.263 20.434C19.5048 20.5673 19.809 20.4793 19.9422 20.2374 19.9656 20.195 19.9827 20.1494 19.993 20.102L23.993 1.602C24.028 1.42059 23.9618 1.23449 23.82 1.116Z" stroke="none" stroke-width="1" stroke-linecap="butt" fill="#AAAEB0" fill-opacity="1"/></svg>