<svg viewBox="0 0 24 24" xmlns="http://www.w3.org/2000/svg" xmlns:xlink="http://www.w3.org/1999/xlink" overflow="hidden"><defs></defs><g id="Ebene_2"><g id="Icons"><g id="Messages-Chat-Smileys_Messages-people_messages-people-user-question"><g id="Group_12"><g id="messages-people-user-question"><path d="M11.25 15.75 14.25 15.75 14.25 20.25 18.75 15.75 21.75 15.75C22.5784 15.75 23.25 15.0784 23.25 14.25L23.25 2.25C23.25 1.42157 22.5784 0.75 21.75 0.75L9.75 0.75C8.92157 0.75 8.25 1.42157 8.25 2.25" id="Shape_54" stroke="#0BF000" stroke-width="1.5" stroke-linecap="butt" stroke-linejoin="round" stroke-opacity="1" fill="none"/><path d="M4.5 9.75C6.15685 9.75 7.5 8.40685 7.5 6.75 7.5 5.09315 6.15685 3.75 4.5 3.75 2.84315 3.75 1.5 5.09315 1.5 6.75 1.5 8.40685 2.84315 9.75 4.5 9.75Z" id="Oval_13" stroke="#0BF000" stroke-width="1.5" stroke-linecap="butt" stroke-linejoin="round" stroke-opacity="1" fill="none"/><path d="M8.25 17.25 8.25 15C8.25 12.9289 6.57107 11.25 4.5 11.25 2.42893 11.25 0.75 12.9289 0.75 15L0.75 17.25 2.25 17.25 3 23.25 6 23.25 6.75 17.25Z" id="Shape_55" stroke="#0BF000" stroke-width="1.5" stroke-linecap="butt" stroke-linejoin="round" stroke-opacity="1" fill="none"/><path d="M13.5 7.12C13.5 6.0817 14.3417 5.24 15.38 5.24 16.4183 5.24 17.26 6.0817 17.26 7.12 17.26 8.1583 16.4183 9 15.38 9" id="Shape_56" stroke="#0BF000" stroke-width="1.5" stroke-linecap="butt" stroke-linejoin="round" stroke-opacity="1" fill="none"/><path d="M15.38 11.25C15.1702 11.2445 14.9957 11.4102 14.9903 11.62 14.9848 11.8298 15.1505 12.0043 15.3603 12.0097 15.5701 12.0152 15.7445 11.8495 15.75 11.6397 15.7502 11.6332 15.7502 11.6266 15.75 11.62 15.7447 11.4179 15.5821 11.2553 15.38 11.25" id="Shape_57" stroke="#0BF000" stroke-width="1.5" stroke-linecap="butt" stroke-linejoin="round" stroke-opacity="1" fill="none"/></g></g></g></g></g></svg>