<svg viewBox="0 0 24 24" xmlns="http://www.w3.org/2000/svg" xmlns:xlink="http://www.w3.org/1999/xlink" overflow="hidden"><path d="M17.168 16.162C16.1918 15.1856 14.6089 15.1854 13.6325 16.1615 13.6323 16.1617 13.6322 16.1618 13.632 16.162L13.247 16.547C11.1523 14.7894 9.21521 12.852 7.458 10.757L7.844 10.372C8.81995 9.39575 8.81995 7.81325 7.844 6.837L5.722 4.716C4.74609 3.73928 3.16318 3.73863 2.18647 4.71453 2.18598 4.71502 2.18549 4.71551 2.185 4.716L1.022 5.879C-0.146177 7.05723-0.330108 8.89237 0.581 10.279 4.04054 15.4937 8.50859 19.9635 13.722 23.425 15.1118 24.3243 16.9393 24.1403 18.122 22.982L19.287 21.817C20.2623 20.8409 20.2623 19.2591 19.287 18.283Z" stroke="none" stroke-width="1" stroke-linecap="butt" fill="#AAAEB0" fill-opacity="1"/><path d="M23 0.007 18.2 0.007C17.6477 0.0109697 17.2032 0.461891 17.2072 1.01416 17.2091 1.27684 17.3143 1.52823 17.5 1.714L18.834 3.05 12.934 8.944C12.3483 9.52997 12.3485 10.4798 12.9345 11.0655 13.5205 11.6512 14.4703 11.651 15.056 11.065L20.956 5.171 22.29 6.506C22.4781 6.69465 22.7336 6.80048 23 6.8 23.1315 6.79948 23.2616 6.77332 23.383 6.723 23.7563 6.56824 23.9997 6.20407 24 5.8L24 1.007C24 0.454715 23.5523 0.00699997 23 0.00699997Z" stroke="none" stroke-width="1" stroke-linecap="butt" fill="#AAAEB0" fill-opacity="1"/></svg>